<svg
    width="160"
height="207"
viewBox="0 0 160 207"
fill="none"
xmlns="http://www.w3.org/2000/svg"
>
<path
id="logo1"
fill="#004A9B"
fill-rule="evenodd"
clip-rule="evenodd"
d="M114.5 53.7C104.5 36.9 90 29.6 75.8 29.4C69.2 29.3 62.7 30.7 56.7 33.4C50.7 36.1 45.2 40.1 40.7 45.1C29.3 57.8 24.5 77.2 33.8 99.3C37.7 108.5 43.5 118.3 49.1 127.6C50.9 130.6 52.7 133.6 54.3 136.4C54.4 136.5 54.4 136.6 54.4 136.6C54.9 137.7 55 138.9 54.6 140C54.2 141.1 53.5 142 52.4 142.6C52.3 142.6 52.2 142.7 52.1 142.7C50.9 143.3 49.6 143.3 48.4 143C47.2 142.6 46.1 141.9 45.5 140.7C43.8 137.8 42.1 134.8 40.3 131.9C34.6 122.3 28.6 112.3 24.6 102.7C18.1 87.4 17.2 70.6 22.4 56.1C27.2 42.8 37.1 31.3 52.7 24.6C68.3 18 82.9 18.5 95.3 24C109.1 30 120.3 42.2 127.2 57.2V57.3C128.2 59.5 129.5 61.7 128.4 64.2C127.3 66.6 124.2 67.2 122 65.9C104.7 57.8 84.9 66 80.7 85.1C80.3 87.7 77.9 89.5 75.4 89.1C72.8 88.7 71.1 86.2 71.5 83.6C76.2 61.8 94.8 50.6 114.5 53.7ZM117.6 75.6C119.3 76.6 121.4 76 122.4 74.3C123.4 72.6 122.8 70.4 121.2 69.4C114 66 105.6 65.5 98.4 69.3C91.8 72.7 87.7 78.8 86.1 85.9C85.8 87.8 87.1 89.7 89 90C90.9 90.3 92.7 88.9 93 87C94.1 82.3 96.8 78.2 101.1 75.9C106.2 73.1 112.3 73.2 117.6 75.6ZM113.6 84.5C115 85.3 116.7 84.8 117.5 83.4C118.3 82 117.8 80.3 116.5 79.4H116.4H116.3C112.4 77.6 107.9 77.3 104 79.3C100.4 81.1 98.1 84.5 97.2 88.4V88.5V88.6C97 90.2 98 91.7 99.6 91.9C101.2 92.1 102.6 91.1 102.9 89.5C104 84.5 109.2 82.4 113.6 84.5Z"
/>
<path
id="logo2"
fill="#639722"
fill-rule="evenodd"
clip-rule="evenodd"
d="M108.9 125.5C108.9 125.3 108.9 125.1 108.9 124.9C108.9 123.5 108.9 121.9 108.7 120.2C108.5 118.6 108.2 117.1 107.7 115.7C107.2 114.3 106.6 113.1 105.8 111.9C105.1 110.8 104.2 109.8 103.3 108.9C102.4 108 101.6 107.2 100.8 106.6C100.8 106.7 100.8 106.9 100.8 107.1C100.9 108.4 101.2 109.9 101.6 111.4C102.1 113.2 102.7 115.1 103.4 116.8C104.1 118.6 105 120.3 105.8 121.7C106.6 123 107.3 123.9 108 124.6C108.3 124.9 108.6 125.2 108.9 125.5ZM113.2 109.2C113.9 106.4 114.8 103.7 115.9 101.2C117.1 98.6 118.6 96.1 120.5 93.9C122.1 91.9 123.9 90.1 125.8 88.5C128.1 86.5 130.4 84.9 132.3 83.8C134.1 82.7 135.6 81.9 136.8 81.5C138.3 80.9 139.5 80.7 140.6 80.7C142.7 80.7 144.2 81.2 145.4 83.3C146 84.4 146.3 85.9 146.2 88.1C146.1 89.9 145.9 92.5 145.3 95.5C144.8 97.8 144.1 100.4 143.2 103C142.1 106 140.7 109.1 139.2 112C137.6 115 135.9 117.9 134.2 120.1C132.5 122.4 130.8 124.2 129.3 125.5C127.8 126.9 126.4 127.8 125.3 128.6C124.2 129.3 123.3 129.9 122.3 130.4C121.3 130.9 120.4 131.3 119.6 131.5C116.1 132.5 116.1 147.9 103.2 155.9L103.1 156C103.8 156.9 111.3 159.3 111 165.1C110.8 170.4 104 172.7 102.9 173.6C105.2 175.3 109.8 176.6 112.7 178C114 178.8 114.5 180.5 113.7 181.8C111.9 184.9 102.3 180.1 99.4 178.8C98.3 178.3 97 177.8 95.8 177.4C93.6 176.7 94.4 176.6 92.2 177.1C89.5 177.8 87 178.3 84.2 178.9C75.7 180.7 65.7 181.3 57.1 181C51.8 180.8 45.1 179.3 44.6 173.9C44.1 168.1 51.5 166.3 56.5 166C59.5 165.8 62.7 165.6 65.9 165.8C73.8 166.4 83.6 167.5 91.2 169.6C93.2 170.1 93.4 170.4 95.3 169.7C96.5 169.3 97.7 168.9 98.8 168.4C100.1 167.8 104.3 166.1 104.7 164.6C104.5 163 97.1 160.2 95 159.6C93.3 159.1 92.6 159.4 91 159.8C88.4 160.5 85.8 160.9 83 161.6C80.3 162.3 77.4 162.4 74.5 162.8C66.8 163.9 44.3 165.9 44.5 155.9C44.7 142.9 81.7 149.6 91.1 152.1C92.9 152.6 93.3 152.8 95.1 152.2C102.7 149.8 105.4 145.9 109.2 134.8C109.1 134.8 109 134.7 108.9 134.7C108.2 134.4 107.6 134.1 106.9 133.6C106.3 133.2 105.7 132.7 104.9 132.1C104.1 131.5 103.2 130.7 102.3 129.6C101.3 128.5 100.3 127.2 99.2 125.4C98.2 123.8 97.2 121.7 96.3 119.4C95.4 117.3 94.7 115 94.1 112.9C93.6 111 93.3 109.2 93.1 107.5C92.9 105.4 92.9 103.6 92.9 102.3C93 100.6 93.4 99.4 94 98.5C95.3 96.7 96.7 96.3 98.6 96.5C99.4 96.6 100.4 96.9 101.5 97.4C102.4 97.8 103.4 98.5 104.6 99.4C105.9 100.4 107.4 101.6 108.8 103.1C110 104.3 111.2 105.7 112.1 107.2C112.6 108.1 112.9 108.6 113.2 109.2ZM119.6 118.5C119.5 120.2 119.4 121.8 119.5 123.1C119.9 122.9 120.4 122.5 120.9 122.2C121.8 121.6 122.9 120.8 124.1 119.8C125.3 118.7 126.6 117.3 128 115.5C129.5 113.5 131 111.1 132.4 108.4C133.8 105.8 135 103.1 135.9 100.4C136.7 98 137.3 95.8 137.7 93.9C138.1 92.1 138.3 90.5 138.4 89.3C137.8 89.6 137.1 90 136.3 90.5C134.7 91.5 132.7 92.9 130.8 94.5C129.3 95.8 127.8 97.3 126.5 98.9C125.1 100.6 123.9 102.6 122.9 104.6C121.9 106.7 121.1 109.1 120.6 111.5C120.1 113.7 119.7 116.2 119.6 118.5ZM51.2 173.4C55.4 176.1 75 175.3 78.5 173.6C77.2 172.6 56.2 170.9 51.2 173.4ZM78.1 155.8C71.5 155 57.9 153 51.2 156C52.7 158.1 66.9 157.6 70.7 157.1C73.5 156.8 75.3 156.9 78.1 155.8Z"
/>
</svg>